<?xml version="1.0" standalone="no"?>
<!DOCTYPE svg PUBLIC "-//W3C//DTD SVG 20010904//EN"
 "http://www.w3.org/TR/2001/REC-SVG-20010904/DTD/svg10.dtd">
<svg version="1.0" xmlns="http://www.w3.org/2000/svg"
 width="640.000000pt" height="640.000000pt" viewBox="0 0 640.000000 640.000000"
 preserveAspectRatio="xMidYMid meet">
<metadata>
Created by potrace 1.14, written by Peter Selinger 2001-2017
</metadata>
<g transform="translate(0.000000,640.000000) scale(0.100000,-0.100000)"
fill="#000000" stroke="none">
<path d="M2700 5249 l0 -50 -151 3 -150 3 1 -35 c4 -74 10 -70 -100 -70 l-100
0 0 -50 0 -50 -100 0 -100 0 0 -50 0 -50 -50 0 -50 0 0 -52 0 -53 -50 3 -50 4
0 -51 0 -51 -50 0 -50 0 0 -50 0 -50 -50 0 -50 0 0 -50 0 -50 -50 0 -50 0 0
-50 0 -50 -50 0 -50 0 0 -100 0 -100 -50 0 -50 0 0 -100 0 -100 -32 -1 c-18
-1 -41 -1 -51 0 -14 2 -17 -6 -18 -51 0 -29 -1 -96 -2 -148 l-2 -95 -47 -3
-48 -3 0 -450 c0 -423 1 -450 18 -448 9 1 32 1 50 0 33 -1 33 -2 31 -43 -1
-24 -1 -91 0 -150 l1 -108 50 0 50 0 0 -100 0 -100 50 0 50 0 0 -100 0 -100
50 0 50 0 0 -49 0 -50 48 -3 47 -3 3 -48 3 -47 50 0 49 0 0 -50 0 -50 50 0 50
0 0 -50 0 -50 50 0 50 0 0 -50 0 -50 51 0 51 0 -2 -37 c-1 -21 -2 -44 -1 -50
1 -10 28 -13 101 -13 l100 0 0 -50 0 -50 100 0 100 0 0 -50 0 -50 150 0 150 0
0 -50 0 -50 88 -2 c48 0 94 -1 102 0 12 1 101 2 203 1 79 -1 261 0 400 1 l107
0 0 50 0 50 150 0 150 0 0 50 0 50 100 0 100 0 0 50 0 50 100 0 100 0 0 50 0
50 50 0 c54 0 53 -1 50 63 l-2 37 51 0 51 0 0 50 0 50 50 0 50 0 0 50 0 50 50
0 50 0 0 51 c0 46 2 50 23 49 12 -1 35 -2 50 -1 26 1 28 4 27 38 -3 64 -4 63
50 63 l50 0 0 100 0 100 50 0 50 0 0 100 0 100 50 0 50 0 0 150 0 150 50 0 50
0 0 450 0 450 -50 0 -50 0 0 144 c0 80 -4 147 -8 150 -5 3 -27 6 -50 7 l-42 3
0 98 0 98 -50 0 -50 0 0 99 0 100 -47 3 -48 3 -3 48 -3 47 -50 0 -49 0 0 50 0
50 -50 0 -50 0 0 50 0 50 -50 0 -50 0 0 50 0 50 -51 0 -51 0 2 38 c3 63 4 62
-50 62 l-50 0 0 50 0 50 -100 0 -100 0 0 50 0 50 -100 0 -100 0 0 50 0 50
-151 0 -151 0 2 38 c1 20 2 43 1 50 -1 9 -98 12 -451 12 l-450 0 0 -51z m495
-450 l305 0 0 -49 0 -50 150 0 150 0 0 -50 0 -50 98 0 98 0 3 -42 c1 -23 4
-45 7 -50 3 -4 25 -8 50 -8 l44 0 0 -50 0 -50 100 0 100 0 0 -100 0 -100 50 0
50 0 0 -50 0 -50 50 0 50 0 0 -100 0 -100 50 0 50 0 0 -150 0 -150 50 0 50 0
0 -50 0 -50 -150 0 -150 0 0 50 c0 41 -3 50 -17 51 -10 0 -31 2 -46 3 -16 1
-31 -2 -33 -6 -3 -5 -9 -6 -14 -3 -5 3 -71 5 -147 5 -169 -1 -150 -1 -310 0
l-133 0 0 50 0 50 -150 0 -150 0 0 50 0 50 -250 0 -250 0 0 -50 0 -50 -150 0
-150 0 0 -50 0 -49 -192 -1 c-221 0 -367 0 -376 1 -4 1 -35 1 -69 0 l-63 -1 0
-50 0 -50 -149 0 -149 0 0 50 -1 50 50 0 49 0 0 150 0 150 50 0 50 0 0 100 0
100 50 0 50 0 0 50 0 50 38 1 c20 1 43 1 50 0 13 -2 15 22 12 137 l-1 62 100
0 101 0 0 50 0 50 50 0 50 0 0 50 0 50 100 0 100 0 0 50 0 50 153 0 152 0 -3
49 -4 50 39 3 c21 2 41 2 45 0 4 -2 145 -3 313 -3z m-295 -1349 l0 -50 -50 0
-50 0 0 50 0 50 50 0 50 0 0 -50z m600 0 l0 -50 -50 0 -50 0 0 50 0 50 50 0
50 0 0 -50z m-900 -450 l0 -100 50 0 50 0 0 -150 0 -150 49 0 50 0 3 -37 c2
-21 1 -65 -2 -98 -3 -33 -4 -106 -2 -162 l3 -103 50 0 49 0 0 -250 0 -250 -50
0 -50 0 0 50 0 50 -150 0 -150 0 0 50 0 50 -100 0 -100 0 0 50 0 50 -50 0 -50
0 0 50 0 50 -67 1 c-38 1 -83 0 -100 -1 l-33 -2 0 101 0 101 -50 0 -50 0 0 49
0 50 -47 3 -48 3 -3 98 -3 97 -49 0 -50 0 0 150 0 150 -50 0 -50 0 0 50 0 50
150 0 150 0 0 50 0 50 350 0 350 0 0 -100z m1800 50 l0 -50 150 0 150 0 0 -50
0 -50 -50 0 -50 0 0 -150 0 -150 -50 0 -50 0 0 -100 0 -100 -51 0 -51 0 2 -32
c4 -68 4 -68 -50 -68 l-50 0 0 -100 0 -100 -100 0 -100 0 0 -51 0 -51 -37 2
c-64 3 -63 4 -63 -50 l0 -50 -100 0 -100 0 0 -50 0 -50 -150 0 -150 0 0 -50 0
-50 -50 0 -50 0 0 250 0 250 50 0 50 0 0 200 c0 221 -6 204 68 200 l32 -2 1
64 c0 35 0 102 -1 151 l-1 87 50 0 51 0 0 100 0 100 350 0 350 0 0 -50z
m-1500 -198 l0 -49 -50 -2 -50 -1 0 50 0 50 50 0 50 0 0 -48z m600 -2 l0 -50
-50 0 -50 0 0 50 0 50 50 0 50 0 0 -50z"/>
</g>
</svg>
